# xmcd
#
# Track frame offsets: 
#        150
#        15702
#        30464
#        49587
#        66085
#        81864
#        90739
#        109543
#        126192
#        142032
#        158530
#        177684
#        194758
#        212041
#
# Disc length: 3063 seconds
#
# Revision: 2
# Processed by: cddbd v1.5.2PL0 Copyright (c) Steve Scherf et al.
# Submitted via: ExactAudioCopy v1.0b3
#
DISCID=c10bf50e
DTITLE=Various Artist - Bomrshell
DYEAR=2013
DGENRE=Alternative
TTITLE0=Bomshell
TTITLE1=Party Hard
TTITLE2=Boy
TTITLE3=Get Down
TTITLE4=Per ty Flas
TTITLE5=Not You (Rmx)
TTITLE6=D&G
TTITLE7=E di se Çfar dua
TTITLE8=Dilema
TTITLE9=Shancy
TTITLE10=M e Special
TTITLE11=Future Love
TTITLE12=Guximi
TTITLE13=Trego
EXTD=
EXTT0=
EXTT1=
EXTT2=
EXTT3=
EXTT4=
EXTT5=
EXTT6=
EXTT7=
EXTT8=
EXTT9=
EXTT10=
EXTT11=
EXTT12=
EXTT13=
PLAYORDER=
